<?xml version="1.0" encoding="utf-8"?>
<!-- Generator: Adobe Illustrator 18.1.1, SVG Export Plug-In . SVG Version: 6.00 Build 0)  -->
<svg version="1.1" id="Layer_1" xmlns="http://www.w3.org/2000/svg" xmlns:xlink="http://www.w3.org/1999/xlink" x="0px" y="0px"
	 width="118px" height="168px" viewBox="0 0 118 168" style="enable-background:new 0 0 118 168;" xml:space="preserve">
<path d="M76.2,147.9c-4.5,3.1-9.6,5.3-15.2,6.6V168H32.7v-13c-7.5-1.6-13.8-4.5-19-9C4.4,138.2-0.1,127.5,0,113.9h27.2
	c0,3.5,0.4,6.2,1.3,8.1c1.5,3,3.9,5.4,7.3,7.2c3.1,1.6,6.4,2.4,10.1,2.4c5.4,0,9.9-1.6,13.5-4.7c3-2.7,4.5-5.9,4.5-9.9
	c0-4.4-1.9-8-5.6-10.8c-2.7-2-8.2-4.5-16.6-7.5c-13.4-4.7-23-9.7-29-15.1C5,77,1.2,67.8,1.2,56.2c0-12.9,4.4-23.1,13.3-30.6
	c5.2-4.4,11.2-7.4,18.2-9.1v-14h28.3v14.3c6.2,1.7,11.6,4.4,16.2,8.3c8.8,7.4,13.8,17.9,15,31.4H63.8C62.9,45.3,57,39.7,46.1,39.7
	c-5.7,0-9.9,1.6-12.9,4.7c-2.5,2.7-3.8,5.8-3.8,9.6c0,5.5,2.8,9.8,8.4,13c2.8,1.5,8.1,3.7,16,6.6c9.9,3.6,17.1,6.8,21.5,9.8
	C87,90.9,92.9,101.4,92.9,115C92.9,129.3,87.3,140.3,76.2,147.9z M96.3,54.1h20.9c-1.2-13.5-6.2-24-15-31.4
	C97.6,18.7,92.2,16,86,14.3V0H65.4v2.5v11.1c5.5,1.9,10.4,4.6,14.7,8.2C89.2,29.6,94.6,40.4,96.3,54.1z M37.8,125.2
	c2.4,1.3,5.1,1.9,8,1.9c4.3,0,7.8-1.2,10.5-3.6c0,0,0,0,0.1-0.1c-1.2-1.2-2.2-2.5-2.9-4c-0.9-1.9-1.3-4.6-1.3-8.1H31.6v2.5
	c0,3.8,0.6,5.5,0.8,6.1C33.5,122.2,35.3,123.9,37.8,125.2z M100.4,80.8c-4.5-2.9-11.6-6.2-21.5-9.8c-7.8-2.9-13.2-5.1-16-6.6
	c-5.6-3.1-8.4-7.4-8.4-13c0-1.7,0.3-3.2,0.8-4.7c-2.1-1.8-5.2-2.7-9.2-2.7c-4.4,0-7.6,1.1-9.7,3.3c-1.8,1.8-2.6,3.9-2.6,6.5
	c0,2.4,0.6,6,6.1,9.1c2.6,1.4,7.7,3.5,15.3,6.3c10.3,3.7,17.7,7.1,22.4,10.2C90.7,88,97.3,99.9,97.3,115c0,15.8-6.3,28.1-18.7,36.6
	c-4,2.7-8.4,4.8-13.3,6.3v7.6H86v-13.5c5.6-1.4,10.7-3.6,15.2-6.6c11.2-7.6,16.8-18.5,16.8-32.9C118,98.9,112.1,88.4,100.4,80.8z" fill="#ffffff"/>
</svg>
