<?xml version="1.0" encoding="utf-8"?>
<!-- Generator: Adobe Illustrator 18.1.1, SVG Export Plug-In . SVG Version: 6.00 Build 0)  -->
<svg version="1.1" id="Layer_1" xmlns="http://www.w3.org/2000/svg" xmlns:xlink="http://www.w3.org/1999/xlink" x="0px" y="0px"
	 width="92px" height="168px" viewBox="0 0 92 168" style="enable-background:new 0 0 92 168;" xml:space="preserve">
<path d="M79.7,0H12.3C5.5,0,0,5.5,0,12.4v143.2c0,6.8,5.5,12.4,12.3,12.4h67.5c6.8,0,12.3-5.5,12.3-12.4V12.4C92,5.5,86.5,0,79.7,0z
	 M28.3,11.5h35.4c1.2,0,2.1,1,2.1,2.1c0,1.2-0.9,2.1-2.1,2.1H28.3c-1.2,0-2.1-1-2.1-2.1C26.2,12.5,27.2,11.5,28.3,11.5z M50.6,162
	h-9.2c-3.4,0-6.1-2.7-6.1-6c0-3.3,2.8-6,6.1-6h9.2c3.4,0,6.1,2.7,6.1,6C56.8,159.3,54,162,50.6,162z M82.5,145h-73V26h73V145z" fill="#ffffff"/>
</svg>
