<?xml version="1.0" encoding="utf-8"?>
<!-- Generator: Adobe Illustrator 18.1.1, SVG Export Plug-In . SVG Version: 6.00 Build 0)  -->
<svg version="1.1" id="Layer_1" xmlns="http://www.w3.org/2000/svg" xmlns:xlink="http://www.w3.org/1999/xlink" x="0px" y="0px"
	 width="153px" height="168px" viewBox="0 0 153 168" style="enable-background:new 0 0 153 168;" xml:space="preserve">
<path d="M7.7,96.2h57.4V168H7.7V96.2z M87.2,168h57.4V96.2H87.2V168z M69.1,168h14.1V55.1H69.1V168z M9.7,27.4
	c0,0-2.2-31.7,34.2-26.4c0,0,17,4,32.2,33.9c0,0,19.2-36.9,43.7-34.9c0,0,29.1,0.4,22.5,34.9c0,0-6.1,15.9-21.2,15.9H31.9
	C31.9,50.8,12.3,50,9.7,27.4z M84.2,42.3h33.6c9,0,16.2-7.3,16.2-16.3c0-9-7.3-16.3-16.2-16.3C117.8,9.8,103,6.6,84.2,42.3z
	 M18.8,25.6c0,9,7.3,16.3,16.2,16.3h33.6c0-0.1-0.1-0.1-0.1-0.2h0.3C50,6,35.2,9.2,35.2,9.2c-5.1,0-9.6,2.3-12.6,6
	C20.2,18,18.8,21.7,18.8,25.6z M0,62.2v21.3c0,3.9,3.2,7.1,7.1,7.1h58V55.1h-58C3.2,55.1,0,58.3,0,62.2z M145.9,55.1H87.2v35.6h58.7
	c3.9,0,7.1-3.2,7.1-7.1V62.2C153,58.3,149.8,55.1,145.9,55.1z" fill="#ffffff"/>
</svg>
