<?xml version="1.0" encoding="utf-8"?>
<!-- Generator: Adobe Illustrator 18.1.1, SVG Export Plug-In . SVG Version: 6.00 Build 0)  -->
<svg version="1.1" id="Layer_1" xmlns="http://www.w3.org/2000/svg" xmlns:xlink="http://www.w3.org/1999/xlink" x="0px" y="0px"
	 width="170px" height="168px" viewBox="0 0 170 168" style="enable-background:new 0 0 170 168;" xml:space="preserve">
<path d="M152.3,99.5c-0.5,6.8-19.3,11.6-31.8,11.6c-4.1,0-15.1-0.1-28.3-0.3L64.6,168H54.1l10.7-57.7c-19.8-0.5-37.9-1.2-41.7-2
	c-0.4-0.1-0.9-0.2-1.3-0.3L7.4,129.2H3.1l6.5-24.5c-5.2-1.6-9.5-3.4-9.5-5.2c0-1.9,4.2-3.4,9.7-4.8L3.1,70.1l4.7,0l14.6,21.8
	c0.4-0.1,0.7-0.2,1-0.2c4.5-1,22.2-1.9,41.5-2.6L54.1,31.7h10.4l27.6,56.6c13.2-0.3,24.3-0.4,28.7-0.3
	C134,88.4,152.8,92.8,152.3,99.5z M138.6,56.3c-4.3-0.1-15.4,0-28.6,0.3L82.3,0H71.8l10.7,57.4c-0.3,0-0.7,0-1,0l13.1,26.9
	c4.7-0.1,9.1-0.2,12.8-0.2l2.4-4.9c13.2,0.2,24.2,0.3,28.3,0.3c12.5,0,31.3-4.8,31.8-11.6C170.5,61.1,151.6,56.7,138.6,56.3z
	 M27.2,73.1l-3.6,13.6l0.5,0.8c2-0.3,4.8-0.6,8.3-0.8l7.1-10.4c0.5,0.1,0.9,0.2,1.3,0.3c2.1,0.5,8.9,0.9,18,1.3l-3.6-19.3
	c-6.9,0.4-12,0.9-14.1,1.4c-0.3,0.1-0.7,0.2-1,0.2L25.4,38.5h-4.7l6.6,24.6c-5.5,1.4-9.7,2.9-9.7,4.8C17.7,69.7,22,71.5,27.2,73.1z" fill="#d3135a"
	/>
</svg>
